<svg width="151" height="150" viewBox="0 0 151 150" fill="none" xmlns="http://www.w3.org/2000/svg">
<g filter="url(#filter0_d_1_3)">
<mask id="path-1-outside-1_1_3" maskUnits="userSpaceOnUse" x="3" y="-1" width="146" height="144" fill="black">
<rect fill="white" x="3" y="-1" width="146" height="144"/>
<path d="M10.275 51.75H33.525L6.675 5.325V54H4.425V1.5H7.05L35.1 50.025V1.5H37.35V54H10.275V51.75ZM54.4289 54H52.1789V1.5H54.4289V54ZM101.794 44.4C100.444 47.7 98.5443 50.25 96.0943 52.05C93.6443 53.85 89.9693 54.75 85.0693 54.75C78.9193 54.75 74.4693 52.875 71.7193 49.125C68.9693 45.325 67.5943 39.425 67.5943 31.425V24.075C67.5943 16.075 68.9693 10.2 71.7193 6.45C74.4693 2.65 78.9193 0.749997 85.0693 0.749997C89.9693 0.749997 93.6443 1.65 96.0943 3.45C98.5443 5.25 100.444 7.8 101.794 11.1L99.7693 12.075C98.6193 9.175 96.9943 6.95 94.8943 5.4C92.7943 3.8 89.5193 3 85.0693 3C82.6193 3 80.5193 3.325 78.7693 3.975C77.0193 4.575 75.4443 5.625 74.0443 7.125C72.6443 8.625 71.5943 10.8 70.8943 13.65C70.1943 16.45 69.8443 19.925 69.8443 24.075V31.425C69.8443 35.575 70.1943 39.075 70.8943 41.925C71.5943 44.725 72.6443 46.875 74.0443 48.375C75.4443 49.875 77.0193 50.95 78.7693 51.6C80.5193 52.2 82.6193 52.5 85.0693 52.5C89.5193 52.5 92.7943 51.725 94.8943 50.175C96.9943 48.575 98.6193 46.325 99.7693 43.425L101.794 44.4ZM140.188 26.55H117.913L140.863 3.75H115.513V51.75H144.613V54H113.263V1.5H146.338L123.388 24.3H140.188V26.55ZM23.025 116.8L21.9 114.85L26.1 112.45C29.55 110.55 31.275 107.525 31.275 103.375C31.275 95.625 25.375 91.75 13.575 91.75H6.675V142H4.425V89.5H13.575C20.175 89.5 25.15 90.725 28.5 93.175C31.85 95.575 33.525 98.975 33.525 103.375C33.525 108.375 31.425 112.05 27.225 114.4L23.025 116.8ZM46.1525 142H43.9025V89.5H46.1525V142ZM92.168 89.5V91.75H74.543V142H72.293V91.75H54.668V89.5H92.168ZM102.088 139.75H129.688L113.788 96.025L97.0635 142H94.6635L113.788 89.425L132.913 142H102.088V139.75Z"/>
</mask>
<path d="M10.275 51.75H33.525L6.675 5.325V54H4.425V1.5H7.05L35.1 50.025V1.5H37.35V54H10.275V51.75ZM54.4289 54H52.1789V1.5H54.4289V54ZM101.794 44.4C100.444 47.7 98.5443 50.25 96.0943 52.05C93.6443 53.85 89.9693 54.75 85.0693 54.75C78.9193 54.75 74.4693 52.875 71.7193 49.125C68.9693 45.325 67.5943 39.425 67.5943 31.425V24.075C67.5943 16.075 68.9693 10.2 71.7193 6.45C74.4693 2.65 78.9193 0.749997 85.0693 0.749997C89.9693 0.749997 93.6443 1.65 96.0943 3.45C98.5443 5.25 100.444 7.8 101.794 11.1L99.7693 12.075C98.6193 9.175 96.9943 6.95 94.8943 5.4C92.7943 3.8 89.5193 3 85.0693 3C82.6193 3 80.5193 3.325 78.7693 3.975C77.0193 4.575 75.4443 5.625 74.0443 7.125C72.6443 8.625 71.5943 10.8 70.8943 13.65C70.1943 16.45 69.8443 19.925 69.8443 24.075V31.425C69.8443 35.575 70.1943 39.075 70.8943 41.925C71.5943 44.725 72.6443 46.875 74.0443 48.375C75.4443 49.875 77.0193 50.95 78.7693 51.6C80.5193 52.2 82.6193 52.5 85.0693 52.5C89.5193 52.5 92.7943 51.725 94.8943 50.175C96.9943 48.575 98.6193 46.325 99.7693 43.425L101.794 44.4ZM140.188 26.55H117.913L140.863 3.75H115.513V51.75H144.613V54H113.263V1.5H146.338L123.388 24.3H140.188V26.55ZM23.025 116.8L21.9 114.85L26.1 112.45C29.55 110.55 31.275 107.525 31.275 103.375C31.275 95.625 25.375 91.75 13.575 91.75H6.675V142H4.425V89.5H13.575C20.175 89.5 25.15 90.725 28.5 93.175C31.85 95.575 33.525 98.975 33.525 103.375C33.525 108.375 31.425 112.05 27.225 114.4L23.025 116.8ZM46.1525 142H43.9025V89.5H46.1525V142ZM92.168 89.5V91.75H74.543V142H72.293V91.75H54.668V89.5H92.168ZM102.088 139.75H129.688L113.788 96.025L97.0635 142H94.6635L113.788 89.425L132.913 142H102.088V139.75Z" fill="#055902"/>
<path d="M10.275 51.75V50.75H9.275V51.75H10.275ZM33.525 51.75V52.75H35.2586L34.3907 51.2493L33.525 51.75ZM6.675 5.325L7.54065 4.82435L5.675 1.59854V5.325H6.675ZM6.675 54V55H7.675V54H6.675ZM4.425 54H3.425V55H4.425V54ZM4.425 1.5V0.499996H3.425V1.5H4.425ZM7.05 1.5L7.91576 0.99954L7.627 0.499996H7.05V1.5ZM35.1 50.025L34.2342 50.5255L36.1 53.7531V50.025H35.1ZM35.1 1.5V0.499996H34.1V1.5H35.1ZM37.35 1.5H38.35V0.499996H37.35V1.5ZM37.35 54V55H38.35V54H37.35ZM10.275 54H9.275V55H10.275V54ZM10.275 52.75H33.525V50.75H10.275V52.75ZM34.3907 51.2493L7.54065 4.82435L5.80935 5.82565L32.6594 52.2507L34.3907 51.2493ZM5.675 5.325V54H7.675V5.325H5.675ZM6.675 53H4.425V55H6.675V53ZM5.425 54V1.5H3.425V54H5.425ZM4.425 2.5H7.05V0.499996H4.425V2.5ZM6.18424 2.00045L34.2342 50.5255L35.9658 49.5245L7.91576 0.99954L6.18424 2.00045ZM36.1 50.025V1.5H34.1V50.025H36.1ZM35.1 2.5H37.35V0.499996H35.1V2.5ZM36.35 1.5V54H38.35V1.5H36.35ZM37.35 53H10.275V55H37.35V53ZM11.275 54V51.75H9.275V54H11.275ZM54.4289 54V55H55.4289V54H54.4289ZM52.1789 54H51.1789V55H52.1789V54ZM52.1789 1.5V0.499996H51.1789V1.5H52.1789ZM54.4289 1.5H55.4289V0.499996H54.4289V1.5ZM54.4289 53H52.1789V55H54.4289V53ZM53.1789 54V1.5H51.1789V54H53.1789ZM52.1789 2.5H54.4289V0.499996H52.1789V2.5ZM53.4289 1.5V54H55.4289V1.5H53.4289ZM101.794 44.4L102.72 44.7786L103.076 43.9074L102.228 43.499L101.794 44.4ZM96.0943 52.05L95.5023 51.2441L95.5023 51.2441L96.0943 52.05ZM71.7193 49.125L70.9092 49.7113L70.9129 49.7164L71.7193 49.125ZM71.7193 6.45L72.5258 7.04138L72.5295 7.03627L71.7193 6.45ZM96.0943 3.45L95.5023 4.25588L95.5023 4.25588L96.0943 3.45ZM101.794 11.1L102.228 12.001L103.076 11.5926L102.72 10.7214L101.794 11.1ZM99.7693 12.075L98.8398 12.4436L99.2356 13.4419L100.203 12.976L99.7693 12.075ZM94.8943 5.4L94.2883 6.19543L94.2944 6.20005L94.3005 6.20457L94.8943 5.4ZM78.7693 3.975L79.0937 4.92094L79.1056 4.91683L79.1175 4.91242L78.7693 3.975ZM74.0443 7.125L74.7754 7.80732L74.7754 7.80732L74.0443 7.125ZM70.8943 13.65L71.8645 13.8925L71.8655 13.8885L70.8943 13.65ZM70.8943 41.925L69.9232 42.1635L69.9242 42.1675L70.8943 41.925ZM74.0443 48.375L73.3133 49.0573L73.3133 49.0573L74.0443 48.375ZM78.7693 51.6L78.4212 52.5374L78.433 52.5418L78.445 52.5459L78.7693 51.6ZM94.8943 50.175L95.4882 50.9796L95.4943 50.975L95.5004 50.9704L94.8943 50.175ZM99.7693 43.425L100.203 42.524L99.2356 42.0581L98.8398 43.0564L99.7693 43.425ZM100.869 44.0214C99.5763 47.1808 97.7799 49.5707 95.5023 51.2441L96.6864 52.8559C99.3088 50.9293 101.312 48.2192 102.72 44.7786L100.869 44.0214ZM95.5023 51.2441C93.3004 52.8618 89.8763 53.75 85.0693 53.75V55.75C90.0623 55.75 93.9883 54.8382 96.6864 52.8559L95.5023 51.2441ZM85.0693 53.75C79.1257 53.75 75.0296 51.948 72.5257 48.5336L70.9129 49.7164C73.909 53.802 78.713 55.75 85.0693 55.75V53.75ZM72.5295 48.5387C69.963 44.9924 68.5943 39.3478 68.5943 31.425H66.5943C66.5943 39.5022 67.9756 45.6576 70.9092 49.7113L72.5295 48.5387ZM68.5943 31.425V24.075H66.5943V31.425H68.5943ZM68.5943 24.075C68.5943 16.1505 69.9637 10.5351 72.5257 7.04136L70.9129 5.85864C67.975 9.86495 66.5943 15.9995 66.5943 24.075H68.5943ZM72.5295 7.03627C75.0352 3.57372 79.1305 1.75 85.0693 1.75V-0.250003C78.7082 -0.250003 73.9034 1.72628 70.9092 5.86373L72.5295 7.03627ZM85.0693 1.75C89.8763 1.75 93.3004 2.63816 95.5023 4.25588L96.6864 2.64412C93.9883 0.661832 90.0623 -0.250003 85.0693 -0.250003V1.75ZM95.5023 4.25588C97.7799 5.92925 99.5763 8.31919 100.869 11.4786L102.72 10.7214C101.312 7.2808 99.3088 4.57075 96.6864 2.64412L95.5023 4.25588ZM101.361 10.199L99.3355 11.174L100.203 12.976L102.228 12.001L101.361 10.199ZM100.699 11.7064C99.4936 8.66678 97.7658 6.27651 95.4882 4.59543L94.3005 6.20457C96.2229 7.62349 97.7451 9.68321 98.8398 12.4436L100.699 11.7064ZM95.5004 4.60457C93.1424 2.80798 89.6021 2 85.0693 2V4C89.4366 4 92.4463 4.79202 94.2883 6.19543L95.5004 4.60457ZM85.0693 2C82.5356 2 80.3113 2.33551 78.4212 3.03757L79.1175 4.91242C80.7274 4.31448 82.7031 4 85.0693 4V2ZM78.445 3.02905C76.5235 3.68785 74.8128 4.8361 73.3133 6.44268L74.7754 7.80732C76.0759 6.4139 77.5152 5.46214 79.0937 4.92094L78.445 3.02905ZM73.3133 6.44268C71.7571 8.11 70.6475 10.4626 69.9232 13.4115L71.8655 13.8885C72.5412 11.1374 73.5316 9.14 74.7754 7.80732L73.3133 6.44268ZM69.9242 13.4075C69.1978 16.313 68.8443 19.8756 68.8443 24.075H70.8443C70.8443 19.9744 71.1909 16.587 71.8645 13.8925L69.9242 13.4075ZM68.8443 24.075V31.425H70.8443V24.075H68.8443ZM68.8443 31.425C68.8443 35.6251 69.1979 39.2107 69.9232 42.1635L71.8655 41.6865C71.1907 38.9393 70.8443 35.5249 70.8443 31.425H68.8443ZM69.9242 42.1675C70.6495 45.0688 71.76 47.3931 73.3133 49.0573L74.7754 47.6927C73.5286 46.3569 72.5392 44.3812 71.8645 41.6825L69.9242 42.1675ZM73.3133 49.0573C74.8087 50.6595 76.5114 51.8281 78.4212 52.5374L79.1175 50.6626C77.5272 50.0719 76.08 49.0905 74.7754 47.6927L73.3133 49.0573ZM78.445 52.5459C80.3271 53.1912 82.5426 53.5 85.0693 53.5V51.5C82.6961 51.5 80.7116 51.2088 79.0937 50.6541L78.445 52.5459ZM85.0693 53.5C89.5975 53.5 93.1323 52.7185 95.4882 50.9796L94.3005 49.3704C92.4564 50.7315 89.4411 51.5 85.0693 51.5V53.5ZM95.5004 50.9704C97.7694 49.2416 99.4942 46.8317 100.699 43.7936L98.8398 43.0564C97.7445 45.8183 96.2192 47.9084 94.2883 49.3796L95.5004 50.9704ZM99.3355 44.326L101.361 45.301L102.228 43.499L100.203 42.524L99.3355 44.326ZM140.188 26.55V27.55H141.188V26.55H140.188ZM117.913 26.55L117.208 25.8406L115.487 27.55H117.913V26.55ZM140.863 3.75L141.568 4.45942L143.288 2.75H140.863V3.75ZM115.513 3.75V2.75H114.513V3.75H115.513ZM115.513 51.75H114.513V52.75H115.513V51.75ZM144.613 51.75H145.613V50.75H144.613V51.75ZM144.613 54V55H145.613V54H144.613ZM113.263 54H112.263V55H113.263V54ZM113.263 1.5V0.499996H112.263V1.5H113.263ZM146.338 1.5L147.043 2.20942L148.763 0.499996H146.338V1.5ZM123.388 24.3L122.683 23.5906L120.962 25.3H123.388V24.3ZM140.188 24.3H141.188V23.3H140.188V24.3ZM140.188 25.55H117.913V27.55H140.188V25.55ZM118.618 27.2594L141.568 4.45942L140.158 3.04058L117.208 25.8406L118.618 27.2594ZM140.863 2.75H115.513V4.75H140.863V2.75ZM114.513 3.75V51.75H116.513V3.75H114.513ZM115.513 52.75H144.613V50.75H115.513V52.75ZM143.613 51.75V54H145.613V51.75H143.613ZM144.613 53H113.263V55H144.613V53ZM114.263 54V1.5H112.263V54H114.263ZM113.263 2.5H146.338V0.499996H113.263V2.5ZM145.633 0.790575L122.683 23.5906L124.093 25.0094L147.043 2.20942L145.633 0.790575ZM123.388 25.3H140.188V23.3H123.388V25.3ZM139.188 24.3V26.55H141.188V24.3H139.188ZM23.025 116.8L22.1588 117.3L22.6565 118.162L23.5211 117.668L23.025 116.8ZM21.9 114.85L21.4039 113.982L20.532 114.48L21.0338 115.35L21.9 114.85ZM26.1 112.45L25.6176 111.574L25.6107 111.578L25.6039 111.582L26.1 112.45ZM6.675 91.75V90.75H5.675V91.75H6.675ZM6.675 142V143H7.675V142H6.675ZM4.425 142H3.425V143H4.425V142ZM4.425 89.5V88.5H3.425V89.5H4.425ZM28.5 93.175L27.9097 93.9822L27.9176 93.9879L28.5 93.175ZM27.225 114.4L26.7367 113.527L26.7289 113.532L27.225 114.4ZM23.8912 116.3L22.7662 114.35L21.0338 115.35L22.1588 117.3L23.8912 116.3ZM22.3961 115.718L26.5961 113.318L25.6039 111.582L21.4039 113.982L22.3961 115.718ZM26.5824 113.326C28.4471 112.299 29.8847 110.944 30.8499 109.252C31.8136 107.562 32.275 105.59 32.275 103.375H30.275C30.275 105.31 29.8739 106.926 29.1126 108.261C28.3528 109.593 27.2029 110.701 25.6176 111.574L26.5824 113.326ZM32.275 103.375C32.275 99.2022 30.6616 95.9632 27.399 93.8204C24.2097 91.7257 19.5527 90.75 13.575 90.75V92.75C19.3973 92.75 23.5904 93.7118 26.301 95.4921C28.9384 97.2243 30.275 99.7977 30.275 103.375H32.275ZM13.575 90.75H6.675V92.75H13.575V90.75ZM5.675 91.75V142H7.675V91.75H5.675ZM6.675 141H4.425V143H6.675V141ZM5.425 142V89.5H3.425V142H5.425ZM4.425 90.5H13.575V88.5H4.425V90.5ZM13.575 90.5C20.0787 90.5 24.8055 91.7119 27.9097 93.9822L29.0903 92.3678C25.4945 89.7381 20.2713 88.5 13.575 88.5V90.5ZM27.9176 93.9879C30.9853 96.1857 32.525 99.2718 32.525 103.375H34.525C34.525 98.6782 32.7147 94.9643 29.0824 92.3621L27.9176 93.9879ZM32.525 103.375C32.525 105.733 32.0309 107.724 31.0818 109.385C30.1337 111.044 28.7004 112.429 26.7367 113.527L27.7133 115.273C29.9496 114.021 31.6663 112.393 32.8182 110.377C33.9691 108.363 34.525 106.017 34.525 103.375H32.525ZM26.7289 113.532L22.5289 115.932L23.5211 117.668L27.7211 115.268L26.7289 113.532ZM46.1525 142V143H47.1525V142H46.1525ZM43.9025 142H42.9025V143H43.9025V142ZM43.9025 89.5V88.5H42.9025V89.5H43.9025ZM46.1525 89.5H47.1525V88.5H46.1525V89.5ZM46.1525 141H43.9025V143H46.1525V141ZM44.9025 142V89.5H42.9025V142H44.9025ZM43.9025 90.5H46.1525V88.5H43.9025V90.5ZM45.1525 89.5V142H47.1525V89.5H45.1525ZM92.168 89.5H93.168V88.5H92.168V89.5ZM92.168 91.75V92.75H93.168V91.75H92.168ZM74.543 91.75V90.75H73.543V91.75H74.543ZM74.543 142V143H75.543V142H74.543ZM72.293 142H71.293V143H72.293V142ZM72.293 91.75H73.293V90.75H72.293V91.75ZM54.668 91.75H53.668V92.75H54.668V91.75ZM54.668 89.5V88.5H53.668V89.5H54.668ZM91.168 89.5V91.75H93.168V89.5H91.168ZM92.168 90.75H74.543V92.75H92.168V90.75ZM73.543 91.75V142H75.543V91.75H73.543ZM74.543 141H72.293V143H74.543V141ZM73.293 142V91.75H71.293V142H73.293ZM72.293 90.75H54.668V92.75H72.293V90.75ZM55.668 91.75V89.5H53.668V91.75H55.668ZM54.668 90.5H92.168V88.5H54.668V90.5ZM102.088 139.75V138.75H101.088V139.75H102.088ZM129.688 139.75V140.75H131.116L130.628 139.408L129.688 139.75ZM113.788 96.025L114.728 95.6833L113.789 93.0993L112.849 95.6831L113.788 96.025ZM97.0635 142V143H97.7638L98.0032 142.342L97.0635 142ZM94.6635 142L93.7237 141.658L93.2356 143H94.6635V142ZM113.788 89.425L114.728 89.0831L113.788 86.4997L112.849 89.0831L113.788 89.425ZM132.913 142V143H134.341L133.853 141.658L132.913 142ZM102.088 142H101.088V143H102.088V142ZM102.088 140.75H129.688V138.75H102.088V140.75ZM130.628 139.408L114.728 95.6833L112.849 96.3667L128.749 140.092L130.628 139.408ZM112.849 95.6831L96.1237 141.658L98.0032 142.342L114.728 96.3669L112.849 95.6831ZM97.0635 141H94.6635V143H97.0635V141ZM95.6032 142.342L114.728 89.7668L112.849 89.0831L93.7237 141.658L95.6032 142.342ZM112.849 89.7668L131.974 142.342L133.853 141.658L114.728 89.0831L112.849 89.7668ZM132.913 141H102.088V143H132.913V141ZM103.088 142V139.75H101.088V142H103.088Z" fill="black" mask="url(#path-1-outside-1_1_3)"/>
</g>
<defs>
<filter id="filter0_d_1_3" x="0.425003" y="0.75" width="149.913" height="149.25" filterUnits="userSpaceOnUse" color-interpolation-filters="sRGB">
<feFlood flood-opacity="0" result="BackgroundImageFix"/>
<feColorMatrix in="SourceAlpha" type="matrix" values="0 0 0 0 0 0 0 0 0 0 0 0 0 0 0 0 0 0 127 0" result="hardAlpha"/>
<feOffset dy="4"/>
<feGaussianBlur stdDeviation="2"/>
<feComposite in2="hardAlpha" operator="out"/>
<feColorMatrix type="matrix" values="0 0 0 0 0 0 0 0 0 0 0 0 0 0 0 0 0 0 0.25 0"/>
<feBlend mode="normal" in2="BackgroundImageFix" result="effect1_dropShadow_1_3"/>
<feBlend mode="normal" in="SourceGraphic" in2="effect1_dropShadow_1_3" result="shape"/>
</filter>
</defs>
</svg>
